<svg width="35" height="35" viewBox="0 0 111 95" fill="none" xmlns="http://www.w3.org/2000/svg">
<path d="M93.5 43.5C93.5 65.7485 76.3334 83.5 55.5 83.5C34.6666 83.5 17.5 65.7485 17.5 43.5C17.5 21.2515 34.6666 3.5 55.5 3.5C76.3334 3.5 93.5 21.2515 93.5 43.5Z" fill="" stroke="white" stroke-width="7"/>
<path d="M71.5 44C71.5 54.7165 64.0964 62.5 56 62.5C47.9036 62.5 40.5 54.7165 40.5 44C40.5 33.2835 47.9036 25.5 56 25.5C64.0964 25.5 71.5 33.2835 71.5 44Z" fill="" stroke="white" stroke-width="7"/>
<path d="M107.5 65.5C107.5 80.0949 96.5275 91.5 83.5 91.5C70.4725 91.5 59.5 80.0949 59.5 65.5C59.5 50.9051 70.4725 39.5 83.5 39.5C96.5275 39.5 107.5 50.9051 107.5 65.5Z" fill="" stroke="white" stroke-width="7"/>
<path d="M51.5 65.5C51.5 80.0949 40.5275 91.5 27.5 91.5C14.4725 91.5 3.5 80.0949 3.5 65.5C3.5 50.9051 14.4725 39.5 27.5 39.5C40.5275 39.5 51.5 50.9051 51.5 65.5Z" fill="" stroke="white" stroke-width="7"/>
<path d="M37.5 66C37.5 70.2077 33.3246 74.5 27 74.5C20.6754 74.5 16.5 70.2077 16.5 66C16.5 61.7923 20.6754 57.5 27 57.5C33.3246 57.5 37.5 61.7923 37.5 66Z" fill="" stroke="white" stroke-width="7"/>
<path d="M93.5 66C93.5 70.2077 89.3246 74.5 83 74.5C76.6754 74.5 72.5 70.2077 72.5 66C72.5 61.7923 76.6754 57.5 83 57.5C89.3246 57.5 93.5 61.7923 93.5 66Z" fill="" stroke="white" stroke-width="7"/>
</svg>
